<mxfile host="app.diagrams.net" agent="Mozilla/5.0 (Windows NT 10.0; Win64; x64) AppleWebKit/537.36 (KHTML, like Gecko) Chrome/128.0.0.0 Safari/537.36" version="24.7.6">
  <diagram name="Page-1" id="0lu4bNAJ3aRb3iQHZZ-V">
    <mxGraphModel dx="1050" dy="596" grid="1" gridSize="10" guides="1" tooltips="1" connect="1" arrows="1" fold="1" page="1" pageScale="1" pageWidth="827" pageHeight="1169" math="0" shadow="0">
      <root>
        <mxCell id="0" />
        <mxCell id="1" parent="0" />
        <mxCell id="2ANFz_NkKtwLTO-b4icd-3" value="&lt;font face=&quot;Times New Roman&quot;&gt;Customer&lt;/font&gt;" style="shape=umlActor;verticalLabelPosition=bottom;verticalAlign=top;html=1;outlineConnect=0;" vertex="1" parent="1">
          <mxGeometry x="40" y="400" width="30" height="60" as="geometry" />
        </mxCell>
        <mxCell id="2ANFz_NkKtwLTO-b4icd-6" value="&lt;font face=&quot;Times New Roman&quot;&gt;Admin&lt;/font&gt;" style="shape=umlActor;verticalLabelPosition=bottom;verticalAlign=top;html=1;outlineConnect=0;" vertex="1" parent="1">
          <mxGeometry x="797" y="400" width="30" height="60" as="geometry" />
        </mxCell>
        <mxCell id="2ANFz_NkKtwLTO-b4icd-9" value="" style="whiteSpace=wrap;html=1;aspect=fixed;fillColor=none;" vertex="1" parent="1">
          <mxGeometry x="200" y="240" width="470" height="470" as="geometry" />
        </mxCell>
        <mxCell id="2ANFz_NkKtwLTO-b4icd-15" value="&lt;font face=&quot;Times New Roman&quot;&gt;Registration&lt;/font&gt;" style="ellipse;whiteSpace=wrap;html=1;fillColor=none;" vertex="1" parent="1">
          <mxGeometry x="240" y="250" width="110" height="50" as="geometry" />
        </mxCell>
        <mxCell id="2ANFz_NkKtwLTO-b4icd-16" value="&lt;font face=&quot;Times New Roman&quot;&gt;Search Product&lt;/font&gt;" style="ellipse;whiteSpace=wrap;html=1;fillColor=none;" vertex="1" parent="1">
          <mxGeometry x="240" y="330" width="110" height="50" as="geometry" />
        </mxCell>
        <mxCell id="2ANFz_NkKtwLTO-b4icd-17" value="&lt;font face=&quot;Times New Roman&quot;&gt;Add to Cart&lt;/font&gt;" style="ellipse;whiteSpace=wrap;html=1;fillColor=none;" vertex="1" parent="1">
          <mxGeometry x="240" y="405" width="110" height="50" as="geometry" />
        </mxCell>
        <mxCell id="2ANFz_NkKtwLTO-b4icd-18" value="&lt;font face=&quot;Times New Roman&quot;&gt;Place Order&lt;/font&gt;" style="ellipse;whiteSpace=wrap;html=1;fillColor=none;" vertex="1" parent="1">
          <mxGeometry x="240" y="480" width="110" height="50" as="geometry" />
        </mxCell>
        <mxCell id="2ANFz_NkKtwLTO-b4icd-19" value="&lt;font face=&quot;Times New Roman&quot;&gt;Post Reviews&lt;/font&gt;" style="ellipse;whiteSpace=wrap;html=1;fillColor=none;" vertex="1" parent="1">
          <mxGeometry x="240" y="560" width="110" height="50" as="geometry" />
        </mxCell>
        <mxCell id="2ANFz_NkKtwLTO-b4icd-20" value="" style="endArrow=none;html=1;rounded=0;entryX=0;entryY=0.5;entryDx=0;entryDy=0;" edge="1" parent="1" target="2ANFz_NkKtwLTO-b4icd-15">
          <mxGeometry width="50" height="50" relative="1" as="geometry">
            <mxPoint x="70" y="420" as="sourcePoint" />
            <mxPoint x="120" y="370" as="targetPoint" />
          </mxGeometry>
        </mxCell>
        <mxCell id="2ANFz_NkKtwLTO-b4icd-21" value="" style="endArrow=none;html=1;rounded=0;entryX=0;entryY=0.5;entryDx=0;entryDy=0;" edge="1" parent="1" target="2ANFz_NkKtwLTO-b4icd-16">
          <mxGeometry width="50" height="50" relative="1" as="geometry">
            <mxPoint x="70" y="420" as="sourcePoint" />
            <mxPoint x="240" y="305" as="targetPoint" />
          </mxGeometry>
        </mxCell>
        <mxCell id="2ANFz_NkKtwLTO-b4icd-22" value="" style="endArrow=none;html=1;rounded=0;entryX=0;entryY=0.5;entryDx=0;entryDy=0;" edge="1" parent="1" target="2ANFz_NkKtwLTO-b4icd-17">
          <mxGeometry width="50" height="50" relative="1" as="geometry">
            <mxPoint x="70" y="420" as="sourcePoint" />
            <mxPoint x="260" y="325" as="targetPoint" />
          </mxGeometry>
        </mxCell>
        <mxCell id="2ANFz_NkKtwLTO-b4icd-23" value="" style="endArrow=none;html=1;rounded=0;entryX=0;entryY=0.5;entryDx=0;entryDy=0;" edge="1" parent="1" target="2ANFz_NkKtwLTO-b4icd-18">
          <mxGeometry width="50" height="50" relative="1" as="geometry">
            <mxPoint x="70" y="420" as="sourcePoint" />
            <mxPoint x="270" y="335" as="targetPoint" />
          </mxGeometry>
        </mxCell>
        <mxCell id="2ANFz_NkKtwLTO-b4icd-24" value="" style="endArrow=none;html=1;rounded=0;entryX=0;entryY=0.5;entryDx=0;entryDy=0;" edge="1" parent="1" target="2ANFz_NkKtwLTO-b4icd-19">
          <mxGeometry width="50" height="50" relative="1" as="geometry">
            <mxPoint x="70" y="420" as="sourcePoint" />
            <mxPoint x="280" y="345" as="targetPoint" />
          </mxGeometry>
        </mxCell>
        <mxCell id="2ANFz_NkKtwLTO-b4icd-25" value="&lt;font face=&quot;Times New Roman&quot;&gt;Manage Product&lt;/font&gt;" style="ellipse;whiteSpace=wrap;html=1;fillColor=none;" vertex="1" parent="1">
          <mxGeometry x="500" y="330" width="110" height="50" as="geometry" />
        </mxCell>
        <mxCell id="2ANFz_NkKtwLTO-b4icd-26" value="&lt;font face=&quot;Times New Roman&quot;&gt;Manage Order&lt;/font&gt;" style="ellipse;whiteSpace=wrap;html=1;fillColor=none;" vertex="1" parent="1">
          <mxGeometry x="500" y="460" width="110" height="50" as="geometry" />
        </mxCell>
        <mxCell id="2ANFz_NkKtwLTO-b4icd-27" value="&lt;font face=&quot;Times New Roman&quot;&gt;Payment&lt;/font&gt;" style="ellipse;whiteSpace=wrap;html=1;fillColor=none;" vertex="1" parent="1">
          <mxGeometry x="240" y="640" width="110" height="50" as="geometry" />
        </mxCell>
        <mxCell id="2ANFz_NkKtwLTO-b4icd-28" value="" style="endArrow=none;html=1;rounded=0;entryX=0;entryY=0.5;entryDx=0;entryDy=0;exitX=1;exitY=0.3333333333333333;exitDx=0;exitDy=0;exitPerimeter=0;" edge="1" parent="1" source="2ANFz_NkKtwLTO-b4icd-3" target="2ANFz_NkKtwLTO-b4icd-27">
          <mxGeometry width="50" height="50" relative="1" as="geometry">
            <mxPoint x="80" y="430" as="sourcePoint" />
            <mxPoint x="250" y="440" as="targetPoint" />
          </mxGeometry>
        </mxCell>
        <mxCell id="2ANFz_NkKtwLTO-b4icd-29" value="" style="endArrow=none;html=1;rounded=0;entryX=0;entryY=0.3333333333333333;entryDx=0;entryDy=0;entryPerimeter=0;exitX=1;exitY=0.5;exitDx=0;exitDy=0;" edge="1" parent="1" source="2ANFz_NkKtwLTO-b4icd-25" target="2ANFz_NkKtwLTO-b4icd-6">
          <mxGeometry width="50" height="50" relative="1" as="geometry">
            <mxPoint x="600" y="365" as="sourcePoint" />
            <mxPoint x="770" y="220" as="targetPoint" />
          </mxGeometry>
        </mxCell>
        <mxCell id="2ANFz_NkKtwLTO-b4icd-30" value="" style="endArrow=none;html=1;rounded=0;exitX=1;exitY=0.5;exitDx=0;exitDy=0;" edge="1" parent="1" source="2ANFz_NkKtwLTO-b4icd-26">
          <mxGeometry width="50" height="50" relative="1" as="geometry">
            <mxPoint x="620" y="365" as="sourcePoint" />
            <mxPoint x="800" y="420" as="targetPoint" />
          </mxGeometry>
        </mxCell>
      </root>
    </mxGraphModel>
  </diagram>
</mxfile>
